<svg width="24" height="24" viewBox="0 0 24 24" fill="none" xmlns="http://www.w3.org/2000/svg">
<g clip-path="url(#clip0)">
<path d="M14.8125 12.1875C14.5538 12.1875 14.3438 12.3975 14.3438 12.6562C14.3438 12.915 14.5538 13.125 14.8125 13.125C15.0712 13.125 15.2812 12.915 15.2812 12.6562C15.2812 12.3975 15.0712 12.1875 14.8125 12.1875Z" fill="#2F80ED"/>
<path d="M4.78975 17.3337L0.102249 23.2399C-0.00962852 23.3807 -0.0308688 23.5732 0.0473173 23.735C0.125503 23.8971 0.289566 24 0.469375 24H23.5319C23.7117 24 23.8757 23.8971 23.9539 23.735C24.0323 23.5732 24.0109 23.3807 23.899 23.2399L19.2115 17.3337C19.1227 17.2216 18.9874 17.1562 18.8444 17.1562H14.7382L18.2438 11.658C19.0661 10.4251 19.5006 8.98737 19.5006 7.5C19.5006 3.36456 16.1362 0 12.0006 0C7.86501 0 4.50063 3.36456 4.50063 7.5C4.50063 8.98737 4.93513 10.4249 5.75746 11.658L9.26302 17.1562H5.15688C5.01387 17.1562 4.87874 17.2216 4.78975 17.3337ZM3.03963 21.0469H5.87392L4.27431 23.0625H1.43983L3.03963 21.0469ZM9.86086 18.0938L11.1459 20.1094H7.81483L9.41463 18.0938H9.86086ZM14.1406 18.0938H14.5868L16.1864 20.1094H12.8555L14.1406 18.0938ZM16.9306 21.0469L18.5302 23.0625H5.47108L7.07088 21.0469H16.9306ZM19.7271 23.0625L18.1273 21.0469H20.9618L22.5614 23.0625H19.7271ZM20.2177 20.1094H17.3834L15.7836 18.0938H18.6181L20.2177 20.1094ZM6.54005 11.1416C5.81917 10.0624 5.43813 8.80316 5.43813 7.5C5.43813 3.88147 8.3821 0.9375 12.0006 0.9375C15.6192 0.9375 18.5631 3.88147 18.5631 7.5C18.5631 8.80316 18.1821 10.0624 17.4614 11.1416C17.4594 11.1443 17.4577 11.1471 17.4559 11.1498C17.1481 11.6327 12.2377 19.3345 12.0006 19.7062C11.4043 18.7707 7.15273 12.1024 6.54536 11.1498C6.54372 11.1471 6.54189 11.1443 6.54005 11.1416ZM8.21767 18.0938L6.61806 20.1094H3.78358L5.38338 18.0938H8.21767Z" fill="#2F80ED"/>
<path d="M12 12.1875C14.5734 12.1875 16.6875 10.1036 16.6875 7.5C16.6875 4.91528 14.5847 2.8125 12 2.8125C9.41528 2.8125 7.3125 4.91528 7.3125 7.5C7.3125 10.1043 9.42737 12.1875 12 12.1875ZM12 3.75C14.0678 3.75 15.75 5.43219 15.75 7.5C15.75 9.58704 14.0543 11.25 12 11.25C9.94519 11.25 8.25 9.58704 8.25 7.5C8.25 5.43219 9.93219 3.75 12 3.75Z" fill="#2F80ED"/>
<path d="M13.9744 13.7871C13.7529 13.6534 13.4647 13.7248 13.331 13.9466L11.5985 16.821C11.4648 17.0427 11.5362 17.3307 11.758 17.4644C11.9806 17.5986 12.2683 17.5257 12.4014 17.3049L14.1339 14.4305C14.2676 14.2088 14.1962 13.9208 13.9744 13.7871Z" fill="#2F80ED"/>
</g>
<defs>
<clipPath id="clip0">
<rect width="24" height="24" fill="white"/>
</clipPath>
</defs>
</svg>
