<svg width="24" height="17" viewBox="0 0 24 17" fill="none" xmlns="http://www.w3.org/2000/svg">
<path fill-rule="evenodd" clip-rule="evenodd" d="M10.3852 9.57429L0.53418 1.23885L1.18012 0.475464L11.0311 8.8109C11.5904 9.28413 12.4097 9.28413 12.9689 8.8109L22.8199 0.475464L23.4658 1.23885L13.6149 9.57429C12.6827 10.363 11.3173 10.363 10.3852 9.57429Z" fill="#2F80ED"/>
<path fill-rule="evenodd" clip-rule="evenodd" d="M22 1H2C1.44772 1 1 1.44772 1 2V15C1 15.5523 1.44771 16 2 16H22C22.5523 16 23 15.5523 23 15V2C23 1.44772 22.5523 1 22 1ZM2 0H22C23.1046 0 24 0.895431 24 2V15C24 16.1046 23.1046 17 22 17H2C0.89543 17 0 16.1046 0 15V2C0 0.89543 0.895431 0 2 0Z" fill="#2F80ED"/>
</svg>
