<svg width="66" height="66" viewBox="0 0 66 66" fill="none" xmlns="http://www.w3.org/2000/svg">
<path d="M46.5781 2.34375V5.6875H50.625C55.2421 5.6875 59 9.44541 59 14.0625V27.4219C59 28.164 58.3984 28.7656 57.6562 28.7656C56.9141 28.7656 56.3125 28.164 56.3125 27.4219V14.0625C56.3125 10.9255 53.762 8.375 50.625 8.375H46.5781V11.7188C46.5781 12.4609 45.9765 13.0625 45.2344 13.0625C44.4922 13.0625 43.8906 12.4609 43.8906 11.7188V8.375H31.2266V11.7188C31.2266 12.4609 30.625 13.0625 29.8828 13.0625C29.1406 13.0625 28.5391 12.4609 28.5391 11.7188V8.375H15.9922V11.7188C15.9922 12.4609 15.3906 13.0625 14.6484 13.0625C13.9063 13.0625 13.3047 12.4609 13.3047 11.7188V8.375H9.375C6.23803 8.375 3.6875 10.9255 3.6875 14.0625V50.625C3.6875 53.762 6.23803 56.3125 9.375 56.3125H27.3047C28.0469 56.3125 28.6484 56.9141 28.6484 57.6562C28.6484 58.3984 28.0469 59 27.3047 59H9.375C4.75791 59 1 55.2421 1 50.625V14.0625C1 9.44541 4.75791 5.6875 9.375 5.6875H13.3047V2.34375C13.3047 1.60158 13.9063 1 14.6484 1C15.3906 1 15.9922 1.60158 15.9922 2.34375V5.6875H28.5391V2.34375C28.5391 1.60158 29.1406 1 29.8828 1C30.625 1 31.2266 1.60158 31.2266 2.34375V5.6875H43.8906V2.34375C43.8906 1.60158 44.4922 1 45.2344 1C45.9765 1 46.5781 1.60158 46.5781 2.34375Z" fill="#2F80ED"/>
<path d="M46.5781 24.6094C46.5781 25.3515 45.9765 25.9531 45.2344 25.9531C44.4922 25.9531 43.8906 25.3515 43.8906 24.6094C43.8906 23.8672 44.4922 23.2656 45.2344 23.2656C45.9765 23.2656 46.5781 23.8672 46.5781 24.6094Z" fill="#2F80ED"/>
<path d="M47.1641 41.0156V44.4766H49.2188C49.9609 44.4766 50.5625 45.0781 50.5625 45.8203C50.5625 46.5625 49.9609 47.1641 49.2188 47.1641H45.8203C45.0781 47.1641 44.4766 46.5625 44.4766 45.8203V41.0156C44.4766 40.2735 45.0781 39.6719 45.8203 39.6719C46.5625 39.6719 47.1641 40.2735 47.1641 41.0156Z" fill="#2F80ED"/>
<path fill-rule="evenodd" clip-rule="evenodd" d="M32.6406 45.8203C32.6406 38.5538 38.5538 32.6406 45.8203 32.6406C53.0868 32.6406 59 38.5538 59 45.8203C59 53.0868 53.0868 59 45.8203 59C38.5538 59 32.6406 53.0868 32.6406 45.8203ZM35.3281 45.8203C35.3281 51.6067 40.0341 56.3125 45.8203 56.3125C51.6065 56.3125 56.3125 51.6067 56.3125 45.8203C56.3125 40.034 51.6065 35.3281 45.8203 35.3281C40.0341 35.3281 35.3281 40.034 35.3281 45.8203Z" fill="#2F80ED"/>
<path d="M36.3828 24.6094C36.3828 25.3515 35.7812 25.9531 35.0391 25.9531C34.2969 25.9531 33.6953 25.3515 33.6953 24.6094C33.6953 23.8672 34.2969 23.2656 35.0391 23.2656C35.7812 23.2656 36.3828 23.8672 36.3828 24.6094Z" fill="#2F80ED"/>
<path d="M26.1875 34.8047C26.1875 35.5468 25.5859 36.1484 24.8438 36.1484C24.1016 36.1484 23.5 35.5468 23.5 34.8047C23.5 34.0626 24.1016 33.4609 24.8438 33.4609C25.5859 33.4609 26.1875 34.0626 26.1875 34.8047Z" fill="#2F80ED"/>
<path d="M15.9922 24.6094C15.9922 25.3515 15.3906 25.9531 14.6484 25.9531C13.9063 25.9531 13.3047 25.3515 13.3047 24.6094C13.3047 23.8672 13.9063 23.2656 14.6484 23.2656C15.3906 23.2656 15.9922 23.8672 15.9922 24.6094Z" fill="#2F80ED"/>
<path d="M15.9922 34.8047C15.9922 35.5468 15.3906 36.1484 14.6484 36.1484C13.9063 36.1484 13.3047 35.5468 13.3047 34.8047C13.3047 34.0626 13.9063 33.4609 14.6484 33.4609C15.3906 33.4609 15.9922 34.0626 15.9922 34.8047Z" fill="#2F80ED"/>
<path d="M15.9922 45C15.9922 45.7421 15.3906 46.3438 14.6484 46.3438C13.9063 46.3438 13.3047 45.7421 13.3047 45C13.3047 44.2579 13.9063 43.6562 14.6484 43.6562C15.3906 43.6562 15.9922 44.2579 15.9922 45Z" fill="#2F80ED"/>
<path d="M26.1875 45C26.1875 45.7421 25.5859 46.3438 24.8438 46.3438C24.1016 46.3438 23.5 45.7421 23.5 45C23.5 44.2579 24.1016 43.6562 24.8438 43.6562C25.5859 43.6562 26.1875 44.2579 26.1875 45Z" fill="#2F80ED"/>
<path d="M26.1875 24.6094C26.1875 25.3515 25.5859 25.9531 24.8438 25.9531C24.1016 25.9531 23.5 25.3515 23.5 24.6094C23.5 23.8672 24.1016 23.2656 24.8438 23.2656C25.5859 23.2656 26.1875 23.8672 26.1875 24.6094Z" fill="#2F80ED"/>
</svg>
