<svg width="60" height="60" viewBox="0 0 60 60" fill="none" xmlns="http://www.w3.org/2000/svg">
<path d="M19.942 24.4289L25.6915 30.1779L40.0566 15.8138L41.8498 17.607L25.6915 33.7648L18.1488 26.2221L19.942 24.4289Z" fill="#2F80ED"/>
<path fill-rule="evenodd" clip-rule="evenodd" d="M49.7771 37.1413L49.5923 37.4219L58.5516 50.4881L48.4311 48.6012L46.5443 58.7217L38.0971 46.4025L37.7366 46.5276C35.3114 47.3693 32.7085 47.8279 29.9991 47.8279C27.2901 47.8279 24.6872 47.3693 22.2615 46.5276L21.901 46.4025L13.4543 58.7217L11.567 48.6012L1.44653 50.4881L10.4058 37.4219L10.2211 37.1413C7.76622 33.4124 6.3351 28.9532 6.3351 24.164C6.3351 11.116 16.9511 0.5 29.9991 0.5C43.0471 0.5 53.6635 11.116 53.6635 24.164C53.6635 28.9532 52.2324 33.4124 49.7771 37.1413ZM13.5953 45.6427L14.8249 52.2374L19.5234 45.3863L19.0257 45.1246C16.5412 43.8182 14.315 42.084 12.4476 40.0188L12.0226 39.5489L7.00096 46.8729L13.5953 45.6427ZM45.1732 52.2375L46.4028 45.6427L52.9976 46.8723L47.976 39.5489L47.551 40.0188C45.6836 42.084 43.4574 43.8182 40.9729 45.1246L40.4753 45.3863L45.1732 52.2375ZM29.9991 3.03622C18.3489 3.03622 8.87133 12.5138 8.87133 24.164C8.87133 35.8146 18.3489 45.2922 29.9991 45.2922C41.6497 45.2922 51.1273 35.8146 51.1273 24.164C51.1273 12.5138 41.6497 3.03622 29.9991 3.03622Z" fill="#2F80ED"/>
</svg>
