<svg width="60" height="60" viewBox="0 0 60 60" fill="none" xmlns="http://www.w3.org/2000/svg">
<g clip-path="url(#clip0)">
<path d="M9.77613 27.5852C9.26167 27.1837 9.17003 26.4411 9.57175 25.9267L3.87785 33.2234C4.27956 32.7089 5.02218 32.6171 5.53663 33.019C6.0512 33.4205 6.14273 34.1631 5.74113 34.6775L11.4349 27.3809C11.0333 27.8953 10.2907 27.9869 9.77613 27.5852Z" fill="#2F80ED"/>
<path d="M6.91963 31.2244C7.13725 31.398 7.39752 31.4824 7.65603 31.4824C8.00314 31.4824 8.34709 31.3302 8.58041 31.0377L8.59377 31.0209C9.00088 30.5108 8.91732 29.7673 8.40721 29.3602C7.89709 28.9533 7.15342 29.0365 6.74643 29.5468L6.73307 29.5636C6.32596 30.0737 6.40951 30.8173 6.91963 31.2244Z" fill="#2F80ED"/>
<path d="M30.0079 11.0304C25.6105 11.0304 22.0331 14.6081 22.0331 19.0053C22.0331 23.4027 25.6105 26.9804 30.0079 26.9804C34.4051 26.9804 37.9828 23.4027 37.9828 19.0053C37.9828 14.6081 34.4051 11.0304 30.0079 11.0304ZM30.0079 25.1025C26.6459 25.1025 23.9108 22.3673 23.9108 19.0053C23.9108 15.6432 26.6459 12.9081 30.0079 12.9081C33.3697 12.9081 36.1049 15.6432 36.1049 19.0053C36.1049 22.3673 33.3697 25.1025 30.0079 25.1025Z" fill="#2F80ED"/>
<path d="M32.3141 16.5247L28.61 20.2288L27.6046 19.2234C27.2379 18.8567 26.6435 18.8567 26.2768 19.2234C25.9103 19.5901 25.9103 20.1846 26.2768 20.5511L27.9462 22.2205C28.1295 22.4039 28.3698 22.4954 28.61 22.4954C28.8502 22.4954 29.0905 22.4039 29.2738 22.2205L33.642 17.8523C34.0084 17.4856 34.0084 16.8912 33.642 16.5247C33.2753 16.1578 32.6808 16.1578 32.3141 16.5247Z" fill="#2F80ED"/>
<path fill-rule="evenodd" clip-rule="evenodd" d="M43.5953 11.6819L43.5944 11.657C43.5804 11.3497 43.5712 11.0245 43.5655 10.6627C43.5394 8.89825 42.1368 7.43878 40.3722 7.34015C36.693 7.13483 33.8468 5.93513 31.4149 3.56477L31.3942 3.545C30.601 2.8177 29.4045 2.8177 28.611 3.545L28.5902 3.56477C26.1584 5.93513 23.3122 7.13483 19.633 7.3404C17.8686 7.43878 16.4658 8.89825 16.4396 10.6629C16.4343 11.0223 16.4248 11.3475 16.4108 11.657L16.4094 11.7149C16.3378 15.4666 16.249 20.1358 17.811 24.3738C18.1973 25.422 18.6729 26.4085 19.2347 27.3284L21.4985 29.0521C21.712 29.2148 21.8487 29.4511 21.8831 29.7176C21.9158 29.9699 21.8531 30.2198 21.7071 30.4249C22.4604 31.1561 23.3036 31.829 24.2325 32.441L27.3633 32.9198L26.741 33.3235C26.5852 33.4246 26.4362 33.5265 26.2937 33.6289C27.1099 34.0395 27.9766 34.4121 28.8918 34.7454L31.7403 32.897C33.2832 31.894 34.884 31.6004 36.8481 31.6688C37.372 31.2654 37.8634 30.8399 38.3214 30.3926C40.027 28.7268 41.3278 26.7005 42.1874 24.3694C43.7552 20.1187 43.6666 15.4407 43.5953 11.6819ZM40.4257 23.7197C39.8624 25.247 39.0985 26.6107 38.1264 27.8179C37.9451 28.1654 37.8249 28.5462 37.7734 28.947C37.7562 29.0809 37.748 29.2145 37.7466 29.3474C37.4154 29.3223 37.0827 29.3041 36.7489 29.2956C35.0272 30.8972 32.8342 32.1567 30.1444 33.0974C30.1256 33.1038 30.1056 33.1094 30.0849 33.1135C30.0304 33.1243 29.975 33.1243 29.9198 33.1133C29.8993 33.1091 29.8793 33.1038 29.8608 33.0974C25.1172 31.4434 21.9183 28.7984 20.1244 25.0352C19.9229 24.6125 19.7392 24.1757 19.5729 23.7246C18.1332 19.8181 18.2148 15.532 18.2868 11.7508L18.2873 11.7298C18.3019 11.4048 18.3117 11.0645 18.3171 10.6905C18.3288 9.90704 18.9528 9.25885 19.7377 9.21515C21.8198 9.09894 23.6489 8.69659 25.3295 7.98517C27.008 7.27472 28.4987 6.27326 29.8864 4.92366C29.9569 4.86408 30.0485 4.86384 30.1188 4.92366C31.5067 6.27326 32.9975 7.27472 34.6757 7.98517C36.3563 8.69659 38.1854 9.09894 40.2677 9.21515C41.0526 9.25885 41.6766 9.90704 41.6881 10.6907C41.6937 11.0667 41.7035 11.407 41.7181 11.7298C41.7899 15.5154 41.8695 19.805 40.4257 23.7197Z" fill="#2F80ED"/>
<path fill-rule="evenodd" clip-rule="evenodd" d="M50.1326 22.5153L59.7616 34.8491C60.3187 35.5643 60.5609 36.452 60.4446 37.3496C60.3284 38.2465 59.8682 39.0423 59.1489 39.5906L52.8431 44.3918C52.2499 44.8454 51.5364 45.086 50.7819 45.086C50.0368 45.086 49.3318 44.8513 48.7527 44.4253C47.9048 45.8006 47.1541 46.5362 45.2981 48.0294C46.015 49.0382 46.2783 50.148 46.0227 51.2016C45.7458 52.3433 44.8658 53.2339 43.7262 53.526C43.4467 53.5976 43.163 53.6328 42.8785 53.6328C42.6526 53.6328 42.4262 53.6099 42.2007 53.5659C42.0554 54.1613 41.751 54.7065 41.3085 55.1495C40.6768 55.7821 39.7825 56.1431 38.8503 56.1431L38.8151 56.143C38.7669 56.1425 38.719 56.1405 38.6711 56.1381C38.5275 56.8008 38.2029 57.4225 37.7495 57.8895C37.1953 58.4603 36.4219 58.8303 35.5454 58.8305C35.2342 58.8305 34.9098 58.7826 34.5777 58.6818C34.3829 59.1689 34.0819 59.6317 33.6933 60.0206C33.0416 60.6729 32.1882 60.9996 31.3262 60.9997C30.4764 60.9997 29.6183 60.6821 28.9366 60.0461L27.5985 58.7952C26.921 59.2904 26.2161 59.5053 25.5539 59.5053C24.6419 59.5055 23.8106 59.1005 23.2412 58.4675C22.8759 58.0616 22.6383 57.5992 22.5246 57.1203C22.2278 57.1116 21.928 57.0615 21.6307 56.964C20.4636 56.5814 19.5513 55.5659 19.3066 54.3766C19.3022 54.3552 19.2988 54.3337 19.2954 54.3123C19.2935 54.2999 19.2915 54.2876 19.2894 54.2753C18.0033 54.2171 16.8063 53.3331 16.2821 52.0343C16.2059 51.8453 16.15 51.6544 16.1096 51.4634C14.8092 51.4201 13.6072 50.511 13.0978 49.1701C12.7414 48.2323 12.8106 47.2605 13.254 46.4516L12.4382 45.3342C12.0473 45.4819 11.6328 45.5584 11.2162 45.5584C10.4959 45.5585 9.77085 45.3334 9.15738 44.868L2.85339 40.0622C2.13222 39.5126 1.67121 38.7148 1.55578 37.8161C1.44046 36.9189 1.68398 36.0323 2.24144 35.3197L3.87785 33.2234C4.27956 32.7089 5.02218 32.6171 5.53663 33.019C6.0512 33.4205 6.14273 34.1631 5.74113 34.6775L4.10378 36.7751C3.93796 36.9869 3.86589 37.2493 3.89999 37.5149C3.93433 37.7817 4.07156 38.0189 4.28624 38.1825L10.5882 42.9867C11.0347 43.3253 11.7052 43.2387 12.0502 42.7956L21.6811 30.4598C21.69 30.4483 21.6987 30.4367 21.7071 30.4249C21.8531 30.2198 21.9158 29.9699 21.8831 29.7176C21.8487 29.4511 21.712 29.2148 21.4985 29.0521L19.2347 27.3284L15.1938 24.2516C14.7466 23.9095 14.077 23.997 13.7297 24.4411L11.4349 27.3809C11.0333 27.8953 10.2907 27.9869 9.77613 27.5852C9.26167 27.1837 9.17003 26.4411 9.57175 25.9267L11.8672 22.9859C13.0155 21.5177 15.1508 21.2434 16.6276 22.3727L20.1244 25.0352C21.9183 28.7984 25.1172 31.4434 29.8608 33.0974C29.8793 33.1038 29.8993 33.1091 29.9198 33.1133C29.975 33.1243 30.0304 33.1243 30.0849 33.1135C30.1056 33.1094 30.1256 33.1038 30.1444 33.0974C32.8342 32.1567 35.0272 30.8972 36.7489 29.2956C37.0827 29.3041 37.4154 29.3223 37.7466 29.3474C37.748 29.2145 37.7562 29.0809 37.7734 28.947C37.8249 28.5462 37.9451 28.1654 38.1264 27.8179C38.3517 27.386 38.6713 27.0052 39.071 26.7006L45.3728 21.8968C45.9704 21.4434 46.6826 21.2046 47.4348 21.2046C48.5006 21.2046 49.4839 21.6824 50.1326 22.5153ZM16.206 49.104C16.3713 49.104 16.5469 49.021 16.7279 48.8575L20.3543 45.5875L20.4301 45.5189L20.4402 45.5099L20.4421 45.5082L21.136 44.8823C21.4145 44.6305 21.4915 44.3339 21.3635 44.0014C21.2439 43.6902 20.9142 43.3554 20.4734 43.3554C20.1721 43.3554 19.8369 43.5116 19.5039 43.807L15.5225 47.3459L15.5189 47.349L15.5152 47.3523C15.2273 47.6079 15.1576 47.937 15.3071 48.3308C15.4719 48.7645 15.8666 49.104 16.206 49.104ZM19.4236 51.9175C19.5956 51.9175 19.7666 51.8406 19.946 51.682L23.431 48.6171L23.4328 48.6153C23.4338 48.6144 23.4348 48.6136 23.4359 48.6127C23.4366 48.6121 23.4374 48.6115 23.4382 48.6108L23.6834 48.3952C23.9559 48.1552 24.031 47.8649 23.9058 47.5332C23.7798 47.1997 23.4305 46.8407 22.9612 46.8407C22.6637 46.8407 22.3353 46.991 22.0112 47.2755L21.94 47.3398C20.9835 48.204 18.9816 50.0128 18.7542 50.2159L18.742 50.2267L18.741 50.2276C18.684 50.2886 18.6293 50.3411 18.5835 50.385L18.5816 50.3869C18.5098 50.4562 18.2825 50.6753 18.474 51.1496C18.6478 51.5803 19.0649 51.9175 19.4236 51.9175ZM23.4459 54.2539C23.4533 54.2468 23.4607 54.2398 23.4684 54.2328C23.4711 54.2304 23.474 54.2282 23.4769 54.2261C23.4802 54.2237 23.4835 54.2214 23.4866 54.2187L24.9382 52.9089C24.9411 52.9062 24.9438 52.9033 24.9465 52.9003C24.9492 52.8974 24.952 52.8944 24.955 52.8916C24.9644 52.8831 24.9739 52.8751 24.9834 52.8671C24.991 52.8608 24.9985 52.8544 25.0061 52.8478L26.5924 51.4164C27.1864 50.8798 26.6999 50.3013 26.6425 50.2371C26.2344 49.7809 25.6214 49.8357 25.0024 50.3829L22.4194 52.6546C22.4153 52.6583 22.4114 52.6622 22.4075 52.6661C22.4023 52.6714 22.397 52.6766 22.3912 52.6816L21.9969 53.0262C21.6821 53.3037 21.5582 53.5908 21.6219 53.9005C21.6953 54.2568 22.0084 54.6007 22.3669 54.7182C22.6505 54.8113 22.8973 54.7506 23.1437 54.5279L23.421 54.2777C23.4293 54.2699 23.4376 54.2619 23.4459 54.2539ZM25.0277 56.0114C24.6336 56.3899 24.8739 56.7484 24.9984 56.8867C25.1266 57.0294 25.6051 57.4403 26.3775 56.747L26.8475 56.3245L26.8597 56.3135L27.9439 55.339C28.3022 55.0172 28.1597 54.6894 28.0428 54.5225C27.9519 54.3928 27.6062 53.9957 26.9684 54.3363L26.9535 54.3441C26.8454 54.3998 26.73 54.4811 26.6102 54.5835L25.0277 56.0114ZM43.1395 51.2365C43.4394 51.1596 43.653 50.9439 43.7257 50.6445C43.8572 50.1025 43.5103 49.4007 42.7979 48.7673L34.4844 41.3737L34.4795 41.3688C34.4778 41.3673 34.476 41.3661 34.4742 41.3645L32.6755 39.7268L29.5597 41.2717C29.5443 41.2794 29.5284 41.2867 29.5125 41.2938C28.9098 41.5602 28.2784 41.6868 27.662 41.6869C26.1647 41.6869 24.7541 40.9399 24.0473 39.6332C23.2055 38.0769 23.3878 35.7191 26.2937 33.6289C26.4362 33.5265 26.5852 33.4246 26.741 33.3235L27.3633 32.9198L24.2325 32.441L23.2502 32.2908L14.2542 43.8131L14.9175 44.7214L17.9347 42.0395C18.7077 41.3538 19.5852 40.9918 20.4735 40.9918C21.828 40.9918 23.0721 41.8602 23.5696 43.1524C23.7514 43.6253 23.8165 44.1114 23.7728 44.5822C24.823 44.8532 25.7154 45.6355 26.1169 46.6984C26.2281 46.993 26.293 47.2918 26.3166 47.5883C27.1416 47.6768 27.8807 48.0763 28.4039 48.6613C29.3314 49.698 29.4921 51.0741 28.9174 52.2074C29.3251 52.4307 29.6885 52.7525 29.9787 53.1668C30.8703 54.4397 30.6832 56.0558 29.5235 57.0971L29.3805 57.2257L30.5501 58.3188C30.9859 58.7256 31.6324 58.7395 32.0212 58.3503C32.2876 58.0837 32.4705 57.7039 32.466 57.427C32.4641 57.3078 32.4274 57.2734 32.403 57.2507C32.4005 57.2483 32.3984 57.2456 32.3958 57.2432L31.3289 56.239C30.8537 55.7916 30.8311 55.0437 31.2785 54.5684C31.7258 54.0932 32.4738 54.0705 32.949 54.518L34.3457 55.8327C34.8478 56.3044 35.5528 56.7591 36.0537 56.2433C36.3783 55.9089 36.4834 55.3649 36.3138 55.042L36.1822 54.9063C36.1346 54.8572 36.0933 54.8046 36.056 54.7501L32.9633 51.6535C32.5022 51.1917 32.5027 50.4436 32.9644 49.9823C33.4262 49.5213 34.1744 49.5218 34.6357 49.9834L37.8969 53.2486C37.9854 53.3374 38.0659 53.4301 38.1398 53.5257C38.3154 53.6855 38.5648 53.777 38.838 53.7796L38.8509 53.7797C39.1596 53.7797 39.4452 53.6706 39.6361 53.4793C39.8297 53.2855 39.9356 53.0249 39.9346 52.7454C39.9335 52.4808 39.8345 52.2363 39.6566 52.0533C39.6524 52.0488 39.6482 52.0443 39.6439 52.0399C39.6407 52.0365 39.6375 52.0332 39.6343 52.0298L35.1806 47.6275C34.7164 47.1687 34.7122 46.4204 35.171 45.9562C35.6298 45.4921 36.378 45.4878 36.8423 45.9465L41.3032 50.3561C41.3495 50.4016 41.3938 50.4487 41.437 50.4966C42.0131 51.0877 42.6424 51.3638 43.1395 51.2365ZM36.0602 39.6123L43.6263 46.3412C45.7684 44.6298 46.2373 44.1266 47.12 42.5413L38.7546 31.8225C38.0796 31.7442 37.4469 31.6896 36.8481 31.6688C34.884 31.6004 33.2832 31.894 31.7403 32.897L28.8918 34.7454L28.0273 35.3065C26.3681 36.3827 25.6397 37.6099 26.126 38.509C26.4799 39.1632 27.4991 39.5873 28.5353 39.1417L32.349 37.2506C32.7852 37.0342 33.3096 37.1077 33.6696 37.4357L36.0602 39.6123ZM57.7165 37.7106C57.9295 37.5482 58.0662 37.3119 58.1006 37.0458C58.1353 36.7788 58.0631 36.5149 57.8977 36.3023L48.2686 23.9685C48.0701 23.7136 47.7666 23.5682 47.4347 23.5682C47.2729 23.5682 47.0321 23.6046 46.8036 23.7779L40.5039 28.5802C40.2891 28.7439 40.1519 28.9812 40.1176 29.2481C40.0834 29.5137 40.1555 29.7759 40.3205 29.987L49.948 42.3228C50.1463 42.5764 50.4506 42.7223 50.7821 42.7225C50.9432 42.7225 51.1827 42.6861 51.4092 42.5128L57.7165 37.7106Z" fill="#2F80ED"/>
<path d="M30.4532 30.9146L30.3451 30.9848L24.2491 30.0526C24.2617 29.8416 24.2549 29.6279 24.2271 29.4136C24.1109 28.5169 23.6508 27.7209 22.9309 27.172L20.1244 25.0352C21.9183 28.7984 25.1172 31.4434 29.8608 33.0974C29.8793 33.1038 29.8993 33.1091 29.9198 33.1133C29.975 33.1243 30.0304 33.1243 30.0849 33.1135C30.1056 33.1094 30.1256 33.1038 30.1444 33.0974C32.8342 32.1567 35.0272 30.8972 36.7489 29.2956C34.6614 29.2421 32.5307 29.5643 30.4532 30.9146Z" fill="#2F80ED"/>
</g>
<defs>
<clipPath id="clip0">
<rect width="60" height="60" fill="white"/>
</clipPath>
</defs>
</svg>
