<svg width="22" height="22" viewBox="0 0 22 22" fill="none" xmlns="http://www.w3.org/2000/svg">
<path fill-rule="evenodd" clip-rule="evenodd" d="M3.13081 3.12549C7.44556 -1.04183 14.2861 -1.04183 18.6009 3.12549C23.024 7.39744 23.1465 14.4462 18.8745 18.8692L18.8693 18.8746C14.5546 23.0419 7.71391 23.0418 3.39916 18.8745C-1.02393 14.6026 -1.14645 7.55388 3.12551 3.13079L3.13081 3.12549ZM18.2027 17.8976L18.2046 17.8995C19.9807 16.0448 20.9751 13.5736 20.9749 11C20.9766 8.35384 19.9268 5.8153 18.0566 3.94334C14.1629 0.0461554 7.84715 0.0432749 3.94993 3.93695C0.0527042 7.83063 0.0498234 14.1463 3.9435 18.0436C7.83717 21.9408 14.1529 21.9437 18.0501 18.05L18.2027 17.8976Z" fill="#2F80ED"/>
<path fill-rule="evenodd" clip-rule="evenodd" d="M17.5192 14.1241C18.067 14.6729 18.067 15.5615 17.5193 16.1102L16.9631 16.6664C16.2366 17.4001 15.2486 17.8159 14.2161 17.8222C13.9141 17.8227 13.6121 17.7864 13.3188 17.7141L13.3153 17.7132C12.2186 17.423 11.1755 16.9591 10.2254 16.3392C9.36559 15.789 8.5689 15.1459 7.84962 14.4216C7.18819 13.7632 6.59416 13.0405 6.07634 12.2641C5.49877 11.4135 5.04179 10.487 4.71847 9.51101L4.71807 9.50981C4.26793 8.1239 4.63773 6.60262 5.67374 5.57795L6.32455 4.92713C6.87926 4.39682 7.75305 4.39686 8.30776 4.92717L8.31126 4.93053L10.3566 6.97595C10.9043 7.52474 10.9045 8.41349 10.3568 8.96228L9.15557 10.1635C9.14188 10.1771 9.14002 10.1989 9.15143 10.2144C9.55609 10.7704 10.0044 11.2943 10.4911 11.7799C11.0345 12.3251 11.6256 12.8216 12.2566 13.2626C12.2735 13.2744 12.2969 13.2726 12.3115 13.2579L13.4856 12.0838C14.0352 11.5356 14.9252 11.5363 15.4736 12.0857L17.5192 14.1241ZM16.8521 15.4533L16.8534 15.452L16.8505 15.4608L16.8516 15.4597L16.8533 15.4585L16.8505 15.4608L16.8489 15.4629L16.8521 15.4533ZM13.6016 16.5859C12.6271 16.3247 11.7007 15.9093 10.8574 15.3555L10.8552 15.354C10.0664 14.8499 9.33544 14.2606 8.67554 13.5967L8.67451 13.5957C8.06725 12.9928 7.52168 12.3309 7.04583 11.6198L7.04492 11.6184C6.52706 10.8571 6.11714 10.0277 5.8268 9.15393C5.51232 8.18281 5.77328 7.11736 6.50103 6.40149L7.15011 5.75243C7.24618 5.65593 7.40261 5.65525 7.49907 5.7513L9.54557 7.79781C9.64208 7.89388 9.64275 8.05031 9.5467 8.14677L8.34538 9.3481C7.92536 9.764 7.87212 10.425 8.22084 10.9023L9.83278 12.6617L11.6019 14.2205C12.0784 14.5528 12.7244 14.4968 13.1366 14.0874L14.2987 12.907C14.3948 12.8109 14.5507 12.8107 14.647 12.9066L16.6976 14.9608C16.7917 15.0544 16.7943 15.2052 16.7052 15.3022L16.7009 15.2995L16.144 15.8563L16.1431 15.8573C15.4813 16.5275 14.5178 16.8036 13.6016 16.5859Z" fill="#2F80ED"/>
</svg>
