<svg width="68" height="68" viewBox="0 0 68 68" fill="none" xmlns="http://www.w3.org/2000/svg">
<g clip-path="url(#clip0)">
<path d="M59.0528 20.0376L56.5784 19.4187C56.5308 19.2941 56.4795 19.1722 56.4282 19.05L57.7393 16.865C58.0348 16.373 57.9566 15.7431 57.5514 15.3379L53.6621 11.4487C53.2556 11.0397 52.627 10.9653 52.1351 11.2607L49.95 12.5718C49.8279 12.5193 49.7046 12.4693 49.5813 12.4217L48.9625 9.94727C48.8232 9.39063 48.324 9.00005 47.7503 9.00005H42.2497C41.676 9.00005 41.1768 9.39063 41.0375 9.94727L40.4187 12.4217C40.2954 12.4693 40.1721 12.5193 40.05 12.5718L37.8649 11.2607C37.373 10.9677 36.7431 11.0422 36.3379 11.4487L32.4487 15.3379C32.0435 15.7431 31.9654 16.373 32.2608 16.865L33.5719 19.05C33.5205 19.1722 33.4693 19.2941 33.4218 19.4187L30.9473 20.0376C30.3907 20.1768 30.0001 20.676 30.0001 21.2498V26.7503C30.0001 27.3241 30.3907 27.8233 30.9473 27.9625L33.4218 28.5814C33.4693 28.7059 33.5194 28.8279 33.5719 28.95L32.2608 31.1351C32.2001 31.2363 32.2209 31.3529 32.1914 31.4624C32.1813 31.4516 32.1834 31.435 32.1729 31.4245L27.5757 26.8273C27.1692 26.4208 26.5382 26.3439 26.0487 26.6393L23.8942 27.9333C23.4608 27.7282 23.0189 27.5451 22.5722 27.384L21.9619 24.9462C21.8227 24.3907 21.3234 24.0002 20.7497 24.0002H14.2507C13.677 24.0002 13.1777 24.3907 13.0385 24.9462L12.4282 27.384C11.9814 27.5451 11.5396 27.7282 11.1062 27.9333L8.95172 26.6393C8.4634 26.3452 7.82988 26.4208 7.42465 26.8273L2.8275 31.4245C2.42227 31.8297 2.3441 32.4596 2.63953 32.9515L3.93352 35.106C3.72844 35.5394 3.54527 35.9813 3.38414 36.428L0.946406 37.0383C0.390586 37.1775 0 37.6768 0 38.2505V44.7495C0 45.3232 0.390586 45.8225 0.946055 45.9617L3.38379 46.572C3.54492 47.0188 3.72809 47.4606 3.93316 47.894L2.63918 50.0485C2.34375 50.5404 2.42191 51.1703 2.82715 51.5756L7.4243 56.1727C7.82953 56.5768 8.46187 56.6525 8.95137 56.3607L11.1059 55.0667C11.5392 55.2718 11.9811 55.4549 12.4279 55.6161L13.0382 58.0538C13.1774 58.6093 13.6766 58.9999 14.2504 58.9999H20.7493C21.3231 58.9999 21.8223 58.6093 21.9615 58.0538L22.5718 55.6161C23.0187 55.4549 23.4605 55.2718 23.8938 55.0667L26.0483 56.3607C26.5391 56.6536 27.1713 56.5768 27.5754 56.1727L32.1725 51.5756C32.5778 51.1703 32.6559 50.5404 32.3605 50.0485L31.0665 47.894C31.2716 47.4606 31.4548 47.0187 31.6159 46.572L34.0536 45.9617C34.6091 45.8225 34.9997 45.3232 34.9997 44.7495V38.2505C34.9997 37.6768 34.6091 37.1775 34.0536 37.0383L31.6159 36.428C31.4548 35.9812 31.2716 35.5394 31.0665 35.106L32.3605 32.9515C32.4212 32.8504 32.4003 32.7338 32.4299 32.6242C32.44 32.635 32.4379 32.6516 32.4484 32.6622L36.3376 36.5514C36.7429 36.9579 37.3716 37.0312 37.8647 36.7394L40.0498 35.4283C40.1719 35.4808 40.2939 35.5308 40.4184 35.5784L41.0373 38.0528C41.1765 38.6095 41.6757 39 42.2495 39H47.75C48.3238 39 48.823 38.6095 48.9622 38.0528L49.5811 35.5784C49.7057 35.5308 49.8277 35.4808 49.9498 35.4283L52.1348 36.7394C52.628 37.0324 53.2579 36.9555 53.6619 36.5514L57.5511 32.6622C57.9564 32.257 58.0345 31.6271 57.7391 31.1351L56.428 28.95C56.4805 28.8279 56.5305 28.7059 56.5781 28.5814L59.0525 27.9625C59.6092 27.8233 59.9998 27.3241 59.9998 26.7503V21.2498C60 20.676 59.6094 20.1768 59.0528 20.0376ZM32.5 39.2259V43.7743L30.3442 44.3138C29.9194 44.42 29.5813 44.7411 29.4531 45.1598C29.2223 45.9129 28.9147 46.6527 28.5375 47.3607C28.3313 47.7476 28.3434 48.2152 28.5693 48.5911L29.7143 50.4979L26.4977 53.7145L24.591 52.5694C24.2126 52.3423 23.745 52.3314 23.3605 52.5377C22.6525 52.9149 21.9128 53.2225 21.1596 53.4533C20.7409 53.5815 20.4198 53.9195 20.3136 54.3443L19.7742 56.5H15.2258L14.6863 54.3442C14.5801 53.9194 14.259 53.5813 13.8403 53.4531C13.0871 53.2224 12.3473 52.9148 11.6394 52.5375C11.2512 52.3313 10.7837 52.3422 10.4089 52.5693L8.50219 53.7143L5.28562 50.4978L6.43066 48.591C6.65648 48.2151 6.66867 47.7475 6.46242 47.3606C6.0852 46.6525 5.77758 45.9128 5.54684 45.1597C5.41863 44.7409 5.08055 44.4199 4.65574 44.3137L2.49996 43.7741V39.2257L4.65574 38.6862C5.08055 38.58 5.41863 38.259 5.54684 37.8402C5.77758 37.0871 6.0852 36.3473 6.46242 35.6393C6.66867 35.2524 6.65648 34.7848 6.43066 34.4089L5.28562 32.5021L8.50219 29.2856L10.4089 30.4306C10.7837 30.6564 11.2513 30.6661 11.6394 30.4623C12.3475 30.0851 13.0871 29.7775 13.8403 29.5468C14.259 29.4186 14.5801 29.0805 14.6863 28.6557L15.2258 26.5H19.7742L20.3137 28.6558C20.4199 29.0806 20.741 29.4187 21.1597 29.5469C21.9129 29.7776 22.6527 30.0852 23.3606 30.4625C23.7451 30.6664 24.2127 30.6565 24.5911 30.4307L26.4979 29.2857L29.7144 32.5022L28.5694 34.409C28.3436 34.7849 28.3314 35.2525 28.5376 35.6395C28.9148 36.3475 29.2225 37.0872 29.4532 37.8404C29.5814 38.2591 29.9195 38.5802 30.3443 38.6863L32.5 39.2259ZM57.5 25.7737L55.3271 26.3181C54.9121 26.4207 54.5789 26.7295 54.4446 27.1348C54.292 27.5925 54.115 28.0345 53.899 28.4593C53.7049 28.8426 53.722 29.2991 53.9429 29.6678L55.0941 31.5843L52.5843 34.0941L50.6678 32.943C50.2991 32.7221 49.8425 32.705 49.4592 32.899C49.0344 33.1151 48.5925 33.2921 48.1348 33.4447C47.7295 33.579 47.4206 33.9122 47.3181 34.3272L46.7736 36.5001H43.2262L42.6818 34.3272C42.5793 33.9121 42.2705 33.579 41.8651 33.4447C41.4074 33.2921 40.9655 33.115 40.5407 32.899C40.1573 32.7086 39.7032 32.7232 39.3321 32.943L37.4156 34.0941L34.9058 31.5843L36.057 29.6678C36.2779 29.2991 36.295 28.8426 36.1009 28.4593C35.8848 28.0345 35.7079 27.5925 35.5553 27.1348C35.421 26.7296 35.0877 26.4207 34.6727 26.3181L32.4998 25.7737V22.2263L34.6727 21.6818C35.0878 21.5781 35.421 21.2705 35.5566 20.864C35.7091 20.405 35.8874 19.9643 36.101 19.5382C36.2951 19.1549 36.278 18.6997 36.0571 18.3322L34.9059 16.4157L37.4157 13.9059L39.3322 15.0558C39.7009 15.2744 40.155 15.2938 40.5383 15.0998C40.9643 14.8861 41.4062 14.7092 41.8652 14.5553C42.2705 14.421 42.5794 14.0877 42.6819 13.6728L43.2264 11.5H46.7738L47.3182 13.6729C47.4207 14.088 47.7295 14.4211 48.1349 14.5554C48.5939 14.7093 49.0358 14.8863 49.4618 15.0999C49.8476 15.2964 50.3004 15.2768 50.6679 15.0559L52.5844 13.906L55.0942 16.4158L53.943 18.3323C53.7221 18.6997 53.705 19.155 53.8991 19.5384C54.1127 19.9643 54.291 20.4051 54.4436 20.8641C54.579 21.2706 54.9123 21.5782 55.3274 21.682L57.5003 22.2264V25.7737H57.5Z" fill="#2F80ED"/>
<path d="M45.0009 19C42.2434 19 40.0009 21.2424 40.0009 24C40.0009 26.7577 42.2432 29.0001 45.0009 29.0001C47.7585 29.0001 50.0009 26.7577 50.0009 24C50.0009 21.2424 47.7584 19 45.0009 19ZM45.0009 26.5C43.6228 26.5 42.5009 25.3782 42.5009 24C42.5009 22.6219 43.6228 21.5001 45.0009 21.5001C46.379 21.5001 47.5009 22.6219 47.5009 24C47.5009 25.3782 46.379 26.5 45.0009 26.5Z" fill="#2F80ED"/>
<path d="M17.5008 34C13.365 34 10.0008 37.3642 10.0008 41.5C10.0008 45.6358 13.365 49 17.5008 49C21.6366 49 25.0008 45.6358 25.0008 41.5C25.0008 37.3642 21.6366 34 17.5008 34ZM17.5008 46.5C14.7433 46.5 12.5008 44.2577 12.5008 41.5C12.5008 38.7424 14.7431 36.5 17.5008 36.5C20.2584 36.5 22.5008 38.7425 22.5008 41.5C22.5008 44.2575 20.2584 46.5 17.5008 46.5Z" fill="#2F80ED"/>
</g>
<defs>
<clipPath id="clip0">
<rect width="67.9433" height="68" fill="white"/>
</clipPath>
</defs>
</svg>
