<svg width="68" height="68" viewBox="0 0 68 68" fill="none" xmlns="http://www.w3.org/2000/svg">
<g clip-path="url(#clip0)">
<path d="M31.3575 17.0545V21.3451H35.6481C36.398 21.3451 37.0059 21.9531 37.0059 22.7029C37.0059 23.4528 36.398 24.0607 35.6481 24.0607H28.1168C25.7507 24.0607 23.8262 25.9851 23.8262 28.3514C23.8262 30.7175 25.7506 32.6419 28.1168 32.6419H31.8825C35.7453 32.6419 38.8886 35.7853 38.8886 39.6481C38.8886 43.511 35.7453 46.6544 31.8825 46.6544H31.3575V50.9451C31.3575 51.695 30.7495 52.3029 29.9997 52.3029C29.2498 52.3029 28.6418 51.695 28.6418 50.9451V46.6544H24.3513C23.6015 46.6544 22.9935 46.0464 22.9935 45.2965C22.9935 44.5467 23.6015 43.9387 24.3513 43.9387H31.8826C34.2488 43.9387 36.1731 42.0142 36.1731 39.6481C36.1731 37.282 34.2488 35.3575 31.8826 35.3575H28.1169C24.2541 35.3575 21.1107 32.2142 21.1107 28.3514C21.1107 24.4885 24.254 21.3451 28.1169 21.3451H28.6418V17.0545C28.6418 16.3046 29.2498 15.6967 29.9997 15.6967C30.7495 15.6967 31.3575 16.3046 31.3575 17.0545Z" fill="#2F80ED"/>
<path fill-rule="evenodd" clip-rule="evenodd" d="M30 4.4C37.9072 4.4 45.3392 7.47833 50.9304 13.0696C56.5215 18.6608 59.6 26.0928 59.6 34C59.6 41.9072 56.5215 49.3392 50.9304 54.9304C45.3392 60.5217 37.9072 63.6 30 63.6C22.0928 63.6 14.6608 60.5217 9.06956 54.9304C3.47844 49.3392 0.399994 41.9072 0.399994 34C0.399994 26.0928 3.47844 18.6608 9.06956 13.0696C14.6608 7.47833 22.0928 4.4 30 4.4ZM3.11562 34C3.11562 48.8245 15.1755 60.8844 30 60.8844C44.8245 60.8844 56.8844 48.8245 56.8844 34C56.8844 19.1755 44.8245 7.11562 30 7.11562C15.1755 7.11562 3.11562 19.1755 3.11562 34Z" fill="#2F80ED"/>
</g>
<defs>
<clipPath id="clip0">
<rect width="68" height="68" fill="white"/>
</clipPath>
</defs>
</svg>
